# xmcd
#
# Track frame offsets: 
#        150
#        17513
#        35215
#        53887
#        75801
#        94743
#        111145
#        126815
#        147275
#        165733
#
# Disc length: 2537 seconds
#
# Revision: 0
# Processed by: cddbd v1.5.2PL0 Copyright (c) Steve Scherf et al.
# Submitted via: ExactAudioCopyFreeDBPlugin 1.0
#
DISCID=7909e70a
DTITLE=Doug Simpson - Where Angels Run
DYEAR=2003
DGENRE=Country
TTITLE0=Where Angels Run
TTITLE1=Magic
TTITLE2=Field of Dreams
TTITLE3=Don't Break My Heart
TTITLE4=True Love
TTITLE5=A Match Made in Heaven
TTITLE6=I Wanna Love You
TTITLE7=Us Again
TTITLE8=Lift Me Up
TTITLE9=Love Dance
EXTD=
EXTT0=
EXTT1=
EXTT2=
EXTT3=
EXTT4=
EXTT5=
EXTT6=
EXTT7=
EXTT8=
EXTT9=
PLAYORDER=
